/* XPM */
static char * C:\Users\kesako\Desktop\Shared VM folder\CCO\cannanode\code\CannaNode_master\share\pixmaps\bitcoin16_xpm[] = {
"16 16 68 1",
" 	c None",
".	c #24AA77",
"+	c #25AA78",
"@	c #25AA77",
"#	c #25AB78",
"$	c #A0CDB6",
"%	c #A1CEB7",
"&	c #28AB78",
"*	c #4DB185",
"=	c #A2CEB7",
"-	c #63B68F",
";	c #FBFDFB",
">	c #DDEBE3",
",	c #4CB084",
"'	c #91C7AB",
")	c #CFE4D9",
"!	c #ACD2BE",
"~	c #FFFFFF",
"{	c #E2EFE8",
"]	c #A6CFBA",
"^	c #DAEAE2",
"/	c #ABD2BE",
"(	c #37AD7C",
"_	c #B5D7C5",
":	c #FEFEFE",
"<	c #E9F2ED",
"[	c #F4F8F6",
"}	c #BBDACA",
"|	c #42AE81",
"1	c #AAD1BC",
"2	c #D9EAE1",
"3	c #EFF6F2",
"4	c #F5F9F7",
"5	c #EDF5F0",
"6	c #F7FAF8",
"7	c #EFF6F3",
"8	c #84C2A4",
"9	c #7FC0A0",
"0	c #8BC4A7",
"a	c #4EB185",
"b	c #B2D5C3",
"c	c #E0EDE6",
"d	c #F4F9F6",
"e	c #FAFDFB",
"f	c #F2F8F5",
"g	c #F9FCFA",
"h	c #EEF5F1",
"i	c #85C2A4",
"j	c #81C0A1",
"k	c #8CC5A8",
"l	c #B1D5C2",
"m	c #FDFEFE",
"n	c #EAF3EE",
"o	c #B9D9C8",
"p	c #A9D1BC",
"q	c #E4EFE9",
"r	c #A6D0BA",
"s	c #DAEAE1",
"t	c #AED3C0",
"u	c #36AD7C",
"v	c #62B68F",
"w	c #FAFCFB",
"x	c #DEECE4",
"y	c #91C7AC",
"z	c #D0E4D9",
"A	c #26AA78",
"B	c #A3CEB7",
"C	c #29AB78",
"     ......     ",
"   +........+   ",
"  @........@.+  ",
" #....$%&.*=..+ ",
" .....-;>,').@. ",
"@......!~{]^/(..",
"........_:<[}...",
"...|123456~78990",
"...abcdefg~hijjk",
"........lmndo...",
"@......p~qrstu..",
" .....vwxayz.A. ",
" #....$BC.*=..+ ",
"  +........@.+  ",
"   +........+   ",
"     ......     "};
