/* XPM */
static char * C:\Users\kesako\Desktop\Shared VM folder\CCO\cannanode\code\CannaNode_master\share\pixmaps\bitcoin32_xpm[] = {
"32 32 117 2",
"  	c None",
". 	c #25AA77",
"+ 	c #24AA77",
"@ 	c #25AA78",
"# 	c #26AA78",
"$ 	c #27AB78",
"% 	c #27AB79",
"& 	c #26AB78",
"* 	c #63B790",
"= 	c #A8D1BC",
"- 	c #42AF80",
"; 	c #2BAB79",
"> 	c #B7D9C7",
", 	c #EFF6F3",
"' 	c #F5FAF8",
") 	c #B2D6C3",
"! 	c #33AC7B",
"~ 	c #85C2A4",
"{ 	c #F6FAF8",
"] 	c #AFD4C0",
"^ 	c #FFFFFF",
"/ 	c #E7F1EC",
"( 	c #6CB994",
"_ 	c #B7D8C7",
": 	c #74BC9A",
"< 	c #38AD7D",
"[ 	c #EDF5F0",
"} 	c #F7FAF8",
"| 	c #CFE5D9",
"1 	c #9CCBB3",
"2 	c #84C2A3",
"3 	c #FDFEFD",
"4 	c #F9FCFA",
"5 	c #7FC0A0",
"6 	c #DAEAE2",
"7 	c #AAD2BE",
"8 	c #B3D7C5",
"9 	c #58B48B",
"0 	c #ADD3BF",
"a 	c #F3F8F5",
"b 	c #58B48A",
"c 	c #ACD3BF",
"d 	c #E1EEE7",
"e 	c #B6D8C6",
"f 	c #D7E9DF",
"g 	c #CFE4D9",
"h 	c #CCE3D7",
"i 	c #FCFEFD",
"j 	c #95C9AF",
"k 	c #A2CEB8",
"l 	c #FAFCFB",
"m 	c #3CAE7E",
"n 	c #90C7AB",
"o 	c #BDDBCB",
"p 	c #D7E8DF",
"q 	c #E4F0EA",
"r 	c #EBF4EF",
"s 	c #EAF3EE",
"t 	c #DCEBE3",
"u 	c #56B38A",
"v 	c #29AB79",
"w 	c #72BB99",
"x 	c #CCE3D6",
"y 	c #F8FBFA",
"z 	c #CBE3D6",
"A 	c #ABD3BF",
"B 	c #C5DFD1",
"C 	c #89C4A7",
"D 	c #D9EAE1",
"E 	c #FDFEFE",
"F 	c #C8E1D4",
"G 	c #AED4C0",
"H 	c #C6E0D2",
"I 	c #56B389",
"J 	c #A5CFB9",
"K 	c #CBE2D6",
"L 	c #E2EFE8",
"M 	c #F0F7F3",
"N 	c #F5FBF8",
"O 	c #F4FAF7",
"P 	c #EDF5F1",
"Q 	c #E7F2EC",
"R 	c #ECF4F0",
"S 	c #4FB286",
"T 	c #99CAB1",
"U 	c #F8FBF9",
"V 	c #FBFDFC",
"W 	c #D6E8DF",
"X 	c #B0D4C1",
"Y 	c #FEFFFF",
"Z 	c #DBEBE2",
"` 	c #D0E5DA",
" .	c #A7D1BB",
"..	c #F5F9F7",
"+.	c #5EB58D",
"@.	c #AAD2BD",
"#.	c #B3D6C3",
"$.	c #DFEDE6",
"%.	c #80C0A0",
"&.	c #85C2A3",
"*.	c #B8D9C8",
"=.	c #57B48A",
"-.	c #35AD7C",
";.	c #8AC4A7",
">.	c #9DCCB4",
",.	c #E9F2ED",
"'.	c #71BB97",
").	c #76BD9A",
"!.	c #2AAB79",
"~.	c #EFF6F2",
"{.	c #B5D7C5",
"].	c #36AD7C",
"^.	c #86C2A4",
"/.	c #64B791",
"(.	c #45B082",
"_.	c #2CAB7A",
":.	c #B9D9C8",
"                        . . . + + . + .                         ",
"                  @ + + + + + + + + + + + + #                   ",
"              $ + + + + + + + + + + + + + + + + %               ",
"            @ + + + + + + + + + + + + + + + + + + @             ",
"          . + + + + + + + + + + + + + + + + + + + + @           ",
"        . + + + + + + + + + + + + + + + + + $ + + + + @         ",
"      & + + + + + + + + * = - + + + + + + ; > + + + + + @       ",
"      + + + + + + + + + ; , ' ) ! + + + + ~ { ; + + + + + %     ",
"    . + + + + + + + + + + ] ^ ^ / ( + + + _ ^ : + + + + + +     ",
"  & + + + + + + + + + + + < [ ^ ^ } ~ + + | ^ 1 + + $ + + + #   ",
"  . + + + + + + + + + + + + 2 3 ^ ^ 4 5 + 6 ^ 7 + 8 9 + + + +   ",
"  + + + + + + + + + + + + + + 0 ^ ^ ^ a b 6 ^ 7 c d + + + + +   ",
". + + + + + + + + + + + + + + + e ^ ^ ^ f g ^ h i j + + + + + . ",
"+ + + + + + + + + + + + + + + + + k l ^ ^ l ^ ^ 6 + + + + + + + ",
"+ + + + + + + + + m n o p q r s d | t ^ ^ ^ ^ , u + + + + + + v ",
"+ + + + + + + w x y ^ ^ ^ ^ ^ ^ ^ ^ ^ ^ ^ ^ ^ z A A A A A A A B ",
"+ + + + + + + C D E ^ ^ ^ ^ ^ ^ ^ ^ ^ ^ ^ ^ ^ F G G G G G G G H ",
"+ + + + + + + + + I J K L M N O P t Q ^ ^ ^ ^ R S + + + + + + v ",
". + + + + + + + + + + + + + + + + T U ^ ^ V ^ ^ W + + + + + + + ",
". + + + + + + + + + + + + + + + X Y ^ ^ Z g ^ ` E n + + + + + . ",
"  + + + + + + + + + + + + + +  .^ ^ ^ ..+.D ^ @.#.$.+ + + + +   ",
"  . + + + + + + + + + + + + %.i ^ ^ l &.+ 6 ^ 7 + *.=.+ + + +   ",
"  & + + + + + + + + + + + -.r ^ ^ U ;.+ + ` ^ >.+ + ; + + + #   ",
"    + + + + + + + + + + + 0 ^ ^ ,.'.+ + + _ ^ ).+ + + + + +     ",
"    & + + + + + + + + + !.~.{ {.].+ + + + ^.{ ; + + + + + &     ",
"      & + + + + + + + + /.@.(.+ + + + + + _.:.+ + + + + @       ",
"        @ + + + + + + + + + + + + + + + + + $ + + + + @         ",
"          @ + + + + + + + + + + + + + + + + + + + + .           ",
"            # + + + + + + + + + + + + + + + + + + @             ",
"              & + + + + + + + + + + + + + + + + $               ",
"                  # + + + + + + + + + + + + @                   ",
"                        . + + + + . . .                         "};
