/* XPM */
static char * C:\Users\kesako\Desktop\Shared VM folder\CCO\cannanode\code\CannaNode_master\share\pixmaps\bitcoin64_xpm[] = {
"64 64 226 2",
"  	c None",
". 	c #25AA77",
"+ 	c #24AA77",
"@ 	c #26AA78",
"# 	c #26AB78",
"$ 	c #27AB79",
"% 	c #25AB78",
"& 	c #25AA78",
"* 	c #28AB79",
"= 	c #2BAC7B",
"- 	c #2AAC7A",
"; 	c #29AC7A",
"> 	c #2EAC7B",
", 	c #2BAC7A",
"' 	c #65B892",
") 	c #34AD7D",
"! 	c #C0DECF",
"~ 	c #42B082",
"{ 	c #9DCDB5",
"] 	c #F6FBF9",
"^ 	c #C9E2D5",
"/ 	c #70BC98",
"( 	c #3BAF7F",
"_ 	c #F8FCFA",
": 	c #A6D0BA",
"< 	c #3BAE7F",
"[ 	c #FFFFFF",
"} 	c #FEFFFF",
"| 	c #D6E9E0",
"1 	c #76BE9C",
"2 	c #97CAB1",
"3 	c #DBECE3",
"4 	c #C3DFD1",
"5 	c #FEFFFE",
"6 	c #50B287",
"7 	c #CAE2D6",
"8 	c #FBFDFC",
"9 	c #3AAE7F",
"0 	c #27AB78",
"a 	c #FCFEFD",
"b 	c #F4F9F6",
"c 	c #92C9AE",
"d 	c #EBF5F0",
"e 	c #85C3A5",
"f 	c #CAE2D5",
"g 	c #C1DECF",
"h 	c #2EAC7A",
"i 	c #40B082",
"j 	c #B0D5C2",
"k 	c #5BB58D",
"l 	c #F9FCFA",
"m 	c #DBEBE3",
"n 	c #45B082",
"o 	c #7EC1A0",
"p 	c #C8E2D5",
"q 	c #B0D6C2",
"r 	c #E6F1EC",
"s 	c #4DB285",
"t 	c #95CAB0",
"u 	c #DDEBE4",
"v 	c #30AC7B",
"w 	c #E2EFE8",
"x 	c #E6F2EC",
"y 	c #49B084",
"z 	c #A4D1BB",
"A 	c #E5F1EB",
"B 	c #A5D1BB",
"C 	c #62B790",
"D 	c #F6FAF8",
"E 	c #DEEDE5",
"F 	c #34AD7C",
"G 	c #AFD5C1",
"H 	c #E7F3EE",
"I 	c #B2D7C5",
"J 	c #49B285",
"K 	c #8EC7AB",
"L 	c #FDFEFE",
"M 	c #AED5C1",
"N 	c #AAD3BF",
"O 	c #D9EBE2",
"P 	c #A8D2BD",
"Q 	c #9ECEB6",
"R 	c #8BC6A9",
"S 	c #99CBB2",
"T 	c #B1D7C4",
"U 	c #F7FBF9",
"V 	c #5FB68E",
"W 	c #94C9AF",
"X 	c #DCEBE3",
"Y 	c #54B389",
"Z 	c #F3F9F6",
"` 	c #EBF4F0",
" .	c #2AAB79",
"..	c #ACD4C0",
"+.	c #D5E9DF",
"@.	c #7DC09F",
"#.	c #EFF6F3",
"$.	c #E1EFE8",
"%.	c #9CCDB5",
"&.	c #98CBB1",
"*.	c #F9FCFB",
"=.	c #E8F3ED",
"-.	c #71BC99",
";.	c #EAF4EF",
">.	c #68B993",
",.	c #5FB78F",
"'.	c #90C8AC",
").	c #AFD5C2",
"!.	c #BFDDCE",
"~.	c #CBE3D7",
"{.	c #D3E8DD",
"].	c #D7E9E0",
"^.	c #D4E8DE",
"/.	c #CEE5D9",
"(.	c #C3DFD0",
"_.	c #B6D8C7",
":.	c #9ACCB3",
"<.	c #76BE9B",
"[.	c #41B082",
"}.	c #9ACCB4",
"|.	c #64B891",
"1.	c #ACD4BF",
"2.	c #D6E9DF",
"3.	c #F3F9F7",
"4.	c #B6D9C7",
"5.	c #34AE7E",
"6.	c #48B184",
"7.	c #AAD3BE",
"8.	c #E3F0E9",
"9.	c #D0E6DB",
"0.	c #A3D0BA",
"a.	c #C2DED0",
"b.	c #EDF6F2",
"c.	c #86C3A5",
"d.	c #DEEDE6",
"e.	c #F8FBFA",
"f.	c #EFF7F3",
"g.	c #77BE9D",
"h.	c #CCE3D7",
"i.	c #A6D1BC",
"j.	c #38AE7E",
"k.	c #A6D1BB",
"l.	c #35AE7E",
"m.	c #5BB68E",
"n.	c #93C9AF",
"o.	c #B5D8C6",
"p.	c #CAE3D6",
"q.	c #EAF5F0",
"r.	c #ECF7F2",
"s.	c #EBF6F1",
"t.	c #E7F2ED",
"u.	c #E0EDE6",
"v.	c #D1E6DC",
"w.	c #BDDBCC",
"x.	c #9FCEB7",
"y.	c #82C3A4",
"z.	c #5EB78E",
"A.	c #E0EEE7",
"B.	c #F4F9F7",
"C.	c #5BB58C",
"D.	c #86C4A6",
"E.	c #F5F9F7",
"F.	c #9ECDB6",
"G.	c #FCFDFD",
"H.	c #DDEDE5",
"I.	c #7BC09F",
"J.	c #F3F8F5",
"K.	c #92C8AE",
"L.	c #A5D0BB",
"M.	c #FAFCFB",
"N.	c #6BBA95",
"O.	c #DBEBE2",
"P.	c #60B78F",
"Q.	c #E7F2EC",
"R.	c #FEFEFE",
"S.	c #A9D3BE",
"T.	c #A3D1BA",
"U.	c #E4F0EA",
"V.	c #91C8AD",
"W.	c #84C3A4",
"X.	c #D1E6DB",
"Y.	c #B5D8C7",
"Z.	c #59B58C",
"`.	c #E5F0EA",
" +	c #3EAE80",
".+	c #BEDDCE",
"++	c #43B083",
"@+	c #DDECE4",
"#+	c #52B389",
"$+	c #A5D1BC",
"%+	c #93C8AE",
"&+	c #A9D2BD",
"*+	c #E9F3EF",
"=+	c #96CAB0",
"-+	c #DEECE5",
";+	c #3CAE7F",
">+	c #54B489",
",+	c #E1EFE7",
"'+	c #50B286",
")+	c #7FC1A1",
"!+	c #C9E2D6",
"~+	c #C5E0D3",
"{+	c #35AD7C",
"]+	c #43B183",
"^+	c #B2D6C3",
"/+	c #29AB79",
"(+	c #9BCCB4",
"_+	c #ECF5F1",
":+	c #87C4A7",
"<+	c #CFE5DA",
"[+	c #56B48A",
"}+	c #FBFDFD",
"|+	c #3CAF80",
"1+	c #37AE7E",
"2+	c #DAECE3",
"3+	c #7CC0A0",
"4+	c #78BF9D",
"5+	c #3FAF81",
"6+	c #A7D1BB",
"7+	c #6ABA95",
"8+	c #3DAF80",
"9+	c #C2DFD1",
"0+	c #46B183",
"a+	c #30AC7C",
"b+	c #29AB7A",
"c+	c #29AC79",
"                                                      . + @ + + + + # + . .                                                     ",
"                                            $ . . + + + + + + + + + + + + + + + # $                                             ",
"                                        # + + + + + + + + + + + + + + + + + + + + + + %                                         ",
"                                    & + + + + + + + + + + + + + + + + + + + + + + + + + + & *                                   ",
"                                @ + + + + + + + + + + + + + + + + + + + + + + + + + + + + + + &                                 ",
"                            * + + + + + + + + + + + + + + + + + + + + + + + + + + + + + + + + + + $                             ",
"                          @ + + + + + + + + + + + + + + + + + + + + + + + + + + + + + + + + + + + + &                           ",
"                        + + + + + + + + + + + + + + + + + + + + + + + + + + + + + + + + + + + + + + + + =                       ",
"                    - + + + + + + + + + + + + + + + + + + + + + + + + + + + + + + + + + + + + + + + + + + ;                     ",
"                  - + + + + + + + + + + + + + + + + + + + + + + + + + + + + + + + + + + + + + + + + + + + + ;                   ",
"                - + + + + + + + + + + + + + + + + + + + + + + + + + + + + + + + + + + + + + + + + + + + + + + ;                 ",
"                + + + + + + + + + + + + + + + + + + + + + + + + + + + + + + + + + + + + > + + + + + + + + + + + ,               ",
"              . + + + + + + + + + + + + + + + + + ' ) + + + + + + + + + + + + + + + + + ! ~ + + + + + + + + + + +               ",
"            # + + + + + + + + + + + + + + + + + + { ] ^ / + + + + + + + + + + + + + + ( _ : + + + + + + + + + + + &             ",
"          * + + + + + + + + + + + + + + + + + + + < ] [ } | 1 + + + + + + + + + + + + 2 [ 3 + + + + + + + + + + + + $           ",
"          + + + + + + + + + + + + + + + + + + + + + 4 [ [ [ 5 ^ 6 + + + + + + + + + + 7 [ 8 9 + + + + + + + + + + + +           ",
"        0 + + + + + + + + + + + + + + + + + + + + + ' a [ [ [ [ b c + + + + + + + + + d [ [ e + + + + + + + + + + + + &         ",
"        + + + + + + + + + + + + + + + + + + + + + + + f [ [ [ [ [ [ g h + + + + + + i } [ [ j + + + + + + + + + + + + + *       ",
"      # + + + + + + + + + + + + + + + + + + + + + + + k l [ [ [ [ [ [ m n + + + + + o [ [ [ p + + + + + + + + + + + + + &       ",
"      + + + + + + + + + + + + + + + + + + + + + + + + + q [ [ [ [ [ [ [ r s + + + + t [ [ [ u + + + + + v + + + + + + + +       ",
"    # + + + + + + + + + + + + + + + + + + + + + + + + + , w [ [ [ [ [ [ [ x y + + + z [ [ [ A + + + + B c + + + + + + + + #     ",
"    . + + + + + + + + + + + + + + + + + + + + + + + + + + C D [ [ [ [ [ [ [ E F + + G [ [ [ H + + + I a J + + + + + + + + +     ",
"    + + + + + + + + + + + + + + + + + + + + + + + + + + + + K L [ [ [ [ [ [ [ ^ + + M [ [ [ H + + N [ O + + + + + + + + + + 0   ",
"  @ + + + + + + + + + + + + + + + + + + + + + + + + + + + + + P [ [ [ [ [ [ [ [ Q + z [ [ [ A + R L [ S + + + + + + + + + + &   ",
"  . + + + + + + + + + + + + + + + + + + + + + + + + + + + + + + T [ [ [ [ [ [ [ U V W [ [ [ X Y Z [ `  .+ + + + + + + + + + +   ",
"  + + + + + + + + + + + + + + + + + + + + + + + + + + + + + + + + ..5 [ [ [ [ [ [ +.@.[ [ [ #.$.[ [ %.+ + + + + + + + + + + +   ",
"  + + + + + + + + + + + + + + + + + + + + + + + + + + + + + + + + + &.*.[ [ [ [ [ [ =.[ [ [ [ [ [ E & + + + + + + + + + + + +   ",
"+ + + + + + + + + + + + + + + + + + + + + + + + + + + + + + + + + + + -.;.[ [ [ [ [ [ [ [ [ [ [ _ >.+ + + + + + + + + + + + + . ",
"+ + + + + + + + + + + + + + + + + + + + + + & ,.'.).!.~.{.].^./.(._.:.<.[.` [ [ [ [ [ [ [ [ [ [ }.+ + + + + + + + + + + + + + + ",
". + + + + + + + + + + + + + + + + + + |.1.2.3.[ [ [ [ [ [ [ [ [ [ [ [ [ a [ [ [ [ [ [ [ [ [ [ 4.+ + + + + + + + + + + + + + + 5.",
"+ + + + + + + + + + + + + + + + 6.7.8.[ [ [ [ [ [ [ [ [ [ [ [ [ [ [ [ [ [ [ [ [ [ [ [ [ [ [ 9.. + + + + + + + + + + + + + + + 0.",
"+ + + + + + + + + + + + + + k a._ [ [ [ [ [ [ [ [ [ [ [ [ [ [ [ [ [ [ [ [ [ [ [ [ [ [ [ [ [ _ H H H H H H H H H H H H H H H b.[ ",
"+ + + + + + + + + + + + + + c.d.[ [ [ [ [ [ [ [ [ [ [ [ [ [ [ [ [ [ [ [ [ [ [ [ [ [ [ [ [ [ e.d d d d d d d d d d d d d d d f.[ ",
"+ + + + + + + + + + + + + + + + g.h.U [ [ [ [ [ [ [ [ [ [ [ [ [ [ [ [ [ [ [ [ [ [ [ [ [ [ [ ! + + + + + + + + + + + + + + + . i.",
"+ + + + + + + + + + + + + + + + + + j.W ~.f.[ [ [ [ [ [ [ [ [ [ [ [ [ [ [ [ [ [ [ [ [ [ [ [ [ k.+ + + + + + + + + + + + + + + l.",
"+ + + + + + + + + + + + + + + + + + + + + + m.n.o.p.X A q.r.s.t.u.v.w.x.y.a [ [ [ [ [ [ [ [ [ L R + + + + + + + + + + + + + + & ",
"# + + + + + + + + + + + + + + + + + + + + + + + + + + + + + + + + + + z.A.[ [ [ [ [ [ [ [ [ [ [ B.C.+ + + + + + + + + + + + + & ",
"  + + + + + + + + + + + + + + + + + + + + + + + + + + + + + + + + + D.E.[ [ [ [ [ [ f.[ [ [ [ [ [ | + + + + + + + + + + + + +   ",
"  + + + + + + + + + + + + + + + + + + + + + + + + + + + + + + + + F.G.[ [ [ [ [ [ H.I.[ [ [ J.t.[ [ K.+ + + + + + + + + + + +   ",
"  + + + + + + + + + + + + + + + + + + + + + + + + + + + + + + + L.5 [ [ [ [ [ [ M.N.c [ [ [ O.P.U [ Q.# + + + + + + + + + + +   ",
"  # + + + + + + + + + + + + + + + + + + + + + + + + + + + + + { R.[ [ [ [ [ [ [ S.+ T.[ [ [ U.+ &.[ [ V.+ + + + + + + + + + &   ",
"    + + + + + + + + + + + + + + + + + + + + + + + + + + + + W.8 [ [ [ [ [ [ [ X.& + M [ [ [ H + + Y.[ 2.+ + + + + + + + + + 0   ",
"    + + + + + + + + + + + + + + + + + + + + + + + + + + + Z.Z [ [ [ [ [ [ [ `. ++ + j [ [ [ H + + . .+8 +++ + + + + + + + +     ",
"    0 + + + + + + + + + + + + + + + + + + + + + + + + + * @+[ [ [ [ [ [ [ ;.#++ + + $+[ [ [ A + + + . ).%++ + + + + + + + &     ",
"      + + + + + + + + + + + + + + + + + + + + + + + + + &+[ [ [ [ [ [ [ *+Z.+ + + + =+[ [ [ -++ + + + + ;++ + + + + + + +       ",
"      # + + + + + + + + + + + + + + + + + + + + + + + >+U [ [ [ [ [ [ ,+'++ + + + + )+[ [ [ !++ + + + + + + + + + + + + &       ",
"        + + + + + + + + + + + + + + + + + + + + + + + ~+[ [ [ [ [ [ ^ {++ + + + + + ]+} [ [ ^++ + + + + + + + + + + + + /+      ",
"        # + + + + + + + + + + + + + + + + + + + + + P.G.[ [ [ [ D (++ + + + + + + + + _+[ [ :++ + + + + + + + + + + + @         ",
"          + + + + + + + + + + + + + + + + + + + + + g [ [ [ [ <+[++ + + + + + + + + + h.[ }+|++ + + + + + + + + + + +           ",
"          $ + + + + + + + + + + + + + + + + + + + 1+D [ [ 2+3++ + + + + + + + + + + + S [ H.+ + + + + + + + + + + + $           ",
"            # + + + + + + + + + + + + + + + + + + (+_ ~.4++ + + + + + + + + + + + + + 5+l 6++ + + + + + + + + + + &             ",
"              . + + + + + + + + + + + + + + + + + 7+8++ + + + + + + + + + + + + + + + + 9+0++ + + + + + + + + + +               ",
"              = + + + + + + + + + + + + + + + + + + + + + + + + + + + + + + + + + + + + a++ + + + + + + + + + + -               ",
"                - + + + + + + + + + + + + + + + + + + + + + + + + + + + + + + + + + + + + + + + + + + + + + + ;                 ",
"                  /++ + + + + + + + + + + + + + + + + + + + + + + + + + + + + + + + + + + + + + + + + + + + *                   ",
"                    b++ + + + + + + + + + + + + + + + + + + + + + + + + + + + + + + + + + + + + + + + + + c+                    ",
"                      = . + + + + + + + + + + + + + + + + + + + + + + + + + + + + + + + + + + + + + + + -                       ",
"                          & + + + + + + + + + + + + + + + + + + + + + + + + + + + + + + + + + + + + &                           ",
"                            0 + + + + + + + + + + + + + + + + + + + + + + + + + + + + + + + + + + $                             ",
"                                # + + + + + + + + + + + + + + + + + + + + + + + + + + + + + + .                                 ",
"                                  b+& + + + + + + + + + + + + + + + + + + + + + + + + + + & /+                                  ",
"                                        & + + + + + + + + + + + + + + + + + + + + + + @                                         ",
"                                            # & + + + + + + + + + + + + + + + + @ @                                             ",
"                                                      & # + + + + + + 0 @                                                       "};
